<?xml version="1.0" standalone="no"?>
<!DOCTYPE svg PUBLIC "-//W3C//DTD SVG 1.1//EN" "http://www.w3.org/Graphics/SVG/1.1/DTD/svg11.dtd" >
<svg xmlns="http://www.w3.org/2000/svg">
<metadata>Generated by IcoMoon</metadata>
<defs>
<font id="icomoon" horiz-adv-x="1024">
<font-face units-per-em="1024" ascent="960" descent="-64" />
<missing-glyph horiz-adv-x="1024" />
<glyph unicode="&#x20;" horiz-adv-x="512" d="" />
<glyph unicode="&#xe900;" glyph-name="cart" d="M886.362 75.607l-54.462 599.274c-1.536 16.511-15.359 29.119-31.935 29.119h-95.996v63.998c0 51.454-19.903 99.772-56.062 135.931s-84.477 56.062-135.931 56.062c-105.852 0-191.993-86.141-191.993-191.993v-63.998h-95.996c-16.575 0-30.399-12.608-31.871-29.119l-54.462-599.274c-3.264-35.711 8.768-71.421 32.959-97.916s58.622-41.662 94.525-41.662h493.742c35.903 0 70.333 15.167 94.525 41.662s36.159 62.206 32.959 97.916zM383.981 767.997c0 70.589 57.406 127.995 127.995 127.995 34.367 0 66.558-13.248 90.685-37.311s37.311-56.318 37.311-90.685v-63.998h-255.991v63.998zM806.109 20.825c-12.288-13.376-29.055-20.799-47.294-20.799h-493.678c-18.175 0-35.007 7.424-47.23 20.863-12.288 13.44-18.111 30.783-16.447 48.958l51.774 570.155h66.75v-95.996c0-17.663 14.335-31.999 31.999-31.999s31.999 14.335 31.999 31.999v95.996h255.991v-95.996c0-17.663 14.335-31.999 31.999-31.999s31.999 14.335 31.999 31.999v95.996h66.75l51.838-570.219c1.664-18.111-4.16-35.519-16.447-48.958z" />
<glyph unicode="&#xe901;" glyph-name="bar-chart" d="M924 736h-96c-55.14 0-100-44.86-100-100v-600c0-55.14 44.86-100 100-100h96c55.14 0 100 44.86 100 100v600c0 55.14-44.86 100-100 100zM944 36c0-11.028-8.972-20-20-20h-96c-11.028 0-20 8.972-20 20v600c0 11.028 8.972 20 20 20h96c11.028 0 20-8.972 20-20v-600zM196 432h-96c-55.14 0-100-44.86-100-100v-296c0-55.14 44.86-100 100-100h96c55.14 0 100 44.86 100 100v296c0 55.14-44.86 100-100 100zM216 36c0-11.028-8.972-20-20-20h-96c-11.028 0-20 8.972-20 20v296c0 11.028 8.972 20 20 20h96c11.028 0 20-8.972 20-20v-296zM560 960h-96c-55.14 0-100-44.86-100-100v-824c0-55.14 44.86-100 100-100h96c55.14 0 100 44.86 100 100v824c0 55.14-44.86 100-100 100zM580 36c0-11.028-8.972-20-20-20h-96c-11.028 0-20 8.972-20 20v824c0 11.028 8.972 20 20 20h96c11.028 0 20-8.972 20-20v-824z" />
<glyph unicode="&#xe902;" glyph-name="blog" d="M934 960h-844c-49.626 0-90-40.374-90-90v-844c0-49.626 40.374-90 90-90h844c49.626 0 90 40.374 90 90v844c0 49.626-40.374 90-90 90zM964 26c0-16.542-13.458-30-30-30h-844c-16.542 0-30 13.458-30 30v634h904v-634zM964 720h-904v150c0 16.542 13.458 30 30 30h844c16.542 0 30-13.458 30-30v-150zM180 810c0-16.569-13.431-30-30-30s-30 13.431-30 30c0 16.569 13.431 30 30 30s30-13.431 30-30zM300 810c0-16.569-13.431-30-30-30s-30 13.431-30 30c0 16.569 13.431 30 30 30s30-13.431 30-30zM420 810c0-16.569-13.431-30-30-30s-30 13.431-30 30c0 16.569 13.431 30 30 30s30-13.431 30-30zM450 600h-300c-16.568 0-30-13.432-30-30v-244c0-16.568 13.432-30 30-30h300c16.568 0 30 13.432 30 30v244c0 16.568-13.432 30-30 30zM420 356h-240v184h240v-184zM874 356h-304c-16.568 0-30-13.432-30-30s13.432-30 30-30h304c16.568 0 30 13.432 30 30s-13.432 30-30 30zM874 478h-304c-16.568 0-30-13.432-30-30s13.432-30 30-30h304c16.568 0 30 13.432 30 30s-13.432 30-30 30zM874 236h-724c-16.568 0-30-13.432-30-30s13.432-30 30-30h724c16.568 0 30 13.432 30 30s-13.432 30-30 30zM874 116h-724c-16.568 0-30-13.432-30-30s13.432-30 30-30h724c16.568 0 30 13.432 30 30s-13.432 30-30 30z" />
<glyph unicode="&#xe903;" glyph-name="blogging" d="M510 555.974c22.094 0 40-17.906 40-40s-17.906-40-40-40-40 17.906-40 40 17.906 40 40 40zM650 515.974c0-22.094 17.906-40 40-40s40 17.906 40 40-17.906 40-40 40-40-17.906-40-40zM290 515.974c0-22.094 17.906-40 40-40s40 17.906 40 40-17.906 40-40 40-40-17.906-40-40zM988.828 140.849c46.813-46.813 46.813-122.938 0.023-169.727-23.391-23.391-54.125-35.094-84.852-35.094s-61.461 11.703-84.852 35.094l-219.578 219.086c-4.664 4.656-8.102 10.383-10.016 16.695l-47.828 157.445c-4.242 13.961-0.547 29.117 9.641 39.563 10.188 10.438 25.25 14.5 39.313 10.609l161.445-44.719c6.648-1.844 12.703-5.367 17.586-10.242zM663.18 239.755l148.18-147.852 56.578 56.578-147.305 147.023-81.219 22.5zM932.281 84.255l-7.719 7.711-56.57-56.57 7.695-7.672c15.625-15.633 41-15.633 56.594-0.031 15.602 15.594 15.602 40.969 0 56.563zM534.25 131.068c-7.391-0.32-14.875-0.484-22.25-0.484-64.32 0-126.242 11.977-184.039 35.594-9.844 4.016-20.891 3.953-30.688-0.18l-182.133-76.883 61.367 145.367c6 14.211 3.289 30.617-6.977 42.148-58.57 65.797-89.531 144.523-89.531 227.648 0 207.156 193.797 375.695 432 375.695s432-168.539 432-375.695c0-49.125-12.063-98.445-35.859-146.578-9.789-19.805-1.672-43.797 18.133-53.586s43.797-1.672 53.586 18.133c29.289 59.258 44.141 120.5 44.141 182.031 0 251.273-229.68 455.695-512 455.695-282.313 0-512-204.422-512-455.695 0-94.844 32.156-184.664 93.273-261.266l-90.125-213.484c-6.328-14.992-2.938-32.328 8.57-43.836 7.656-7.656 17.883-11.719 28.289-11.719 5.242 0 10.531 1.031 15.547 3.148l257.859 108.852c62.891-23.492 129.617-35.391 198.586-35.391 8.531 0 17.195 0.195 25.75 0.563 22.070 0.969 39.18 19.641 38.211 41.711-0.961 22.070-19.672 39.234-41.711 38.211z" />
<glyph unicode="&#xe904;" glyph-name="arrow-bottom" d="M935.88 714.781l-423.831-423.933-423.831 423.984c-20.207 20.207-52.894 20.207-73.101 0-20.156-20.207-20.156-52.945 0-73.152l460.358-460.511c20.156-20.207 52.894-20.207 73.050 0l460.358 460.507c20.156 20.207 20.156 52.996 0 73.203-20.105 20.109-52.848 20.109-73.003-0.098z" />
<glyph unicode="&#xe905;" glyph-name="arrow-top" d="M88.12 181.22l423.831 423.933 423.831-423.984c20.207-20.207 52.894-20.207 73.101 0 20.156 20.207 20.156 52.945 0 73.152l-460.358 460.511c-20.156 20.207-52.894 20.207-73.050 0l-460.358-460.507c-20.156-20.207-20.156-52.996 0-73.203 20.105-20.109 52.848-20.109 73.003 0.098z" />
<glyph unicode="&#xe906;" glyph-name="arrow-right" d="M245.219 871.88l423.933-423.831-423.984-423.831c-20.207-20.207-20.207-52.894 0-73.101 20.207-20.156 52.945-20.156 73.152 0l460.511 460.358c20.207 20.156 20.207 52.894 0 73.050l-460.507 460.358c-20.207 20.156-52.996 20.156-73.203 0-20.109-20.105-20.109-52.848 0.098-73.003z" />
<glyph unicode="&#xe907;" glyph-name="arrow-left" d="M778.781 24.12l-423.933 423.831 423.984 423.831c20.207 20.207 20.207 52.894 0 73.101-20.207 20.156-52.945 20.156-73.152 0l-460.511-460.358c-20.207-20.156-20.207-52.894 0-73.050l460.507-460.358c20.207-20.156 52.996-20.156 73.203 0 20.109 20.105 20.109 52.848-0.098 73.003z" />
<glyph unicode="&#xe908;" glyph-name="calendar" d="M906.664-64h-789.328c-64.727 0-117.336 52.609-117.336 117.336v704c0 64.727 52.609 117.328 117.336 117.328h789.328c64.727 0 117.336-52.602 117.336-117.328v-704c0-64.727-52.609-117.336-117.336-117.336zM117.336 810.664c-29.398 0-53.336-23.93-53.336-53.328v-704c0-29.398 23.938-53.336 53.336-53.336h789.328c29.398 0 53.336 23.938 53.336 53.336v704c0 29.398-23.938 53.328-53.336 53.328zM992 554.664h-960c-17.664 0-32 14.336-32 32s14.336 32 32 32h960c17.664 0 32-14.336 32-32s-14.336-32-32-32zM245.336 704c-17.664 0-32 14.336-32 32v192c0 17.664 14.336 32 32 32s32-14.336 32-32v-192c0-17.664-14.336-32-32-32zM778.664 704c-17.664 0-32 14.336-32 32v192c0 17.664 14.336 32 32 32s32-14.336 32-32v-192c0-17.664-14.336-32-32-32z" />
<glyph unicode="&#xe909;" glyph-name="clock" d="M694.432 357.578l-142.774 107.080v218.124c0 21.932-17.728 39.66-39.66 39.66s-39.66-17.728-39.66-39.66v-237.956c0-12.492 5.87-24.272 15.864-31.728l158.636-118.978c7.138-5.354 15.468-7.932 23.756-7.932 12.096 0 23.994 5.434 31.768 15.904 13.17 17.492 9.6 42.358-7.93 55.486zM512 960c-282.334 0-512-229.666-512-512s229.666-512 512-512 512 229.666 512 512-229.666 512-512 512zM512 15.318c-238.55 0-432.682 194.132-432.682 432.682s194.132 432.682 432.682 432.682c238.59 0 432.682-194.132 432.682-432.682s-194.132-432.682-432.682-432.682z" />
<glyph unicode="&#xe90a;" glyph-name="download" d="M832.254 574.926c-4.722 174.216-147.914 314.496-323.248 314.496-80.548 0-157.724-29.8-217.314-83.906-51.346-46.62-86.042-107.914-99.628-175.060-48.54-10.438-92.846-35.546-127.126-72.5-41.876-45.152-64.938-103.95-64.938-165.564 0-60.48 22.278-118.628 62.73-163.732 40.302-44.94 95.2-73.196 154.58-79.562l2.122-0.228h6.128v77.148l0.266 2.468c-0.086 0.010-0.178 0.020-0.266 0.030v0.2h-1.742c-82.222 9.834-143.972 79.844-143.972 163.68 0 84.73 66.062 156.392 150.398 163.142l33.136 2.652 3.394 33.066c12.77 124.466 116.91 218.324 242.234 218.324 134.28 0 243.524-109.244 243.524-243.524v-69.864h57.886c73.744 0 133.738-59.994 133.738-133.738s-59.994-133.738-133.738-133.738h-9.98v-79.844h9.98c117.77 0 213.582 95.812 213.582 213.582 0 110.4-84.19 201.504-191.746 212.472zM670.69 279.182l-119.766-119.766v396.658h-79.844v-396.658l-119.766 119.766-56.458-56.458 216.146-216.146 216.146 216.146z" />
<glyph unicode="&#xe90b;" glyph-name="comment" d="M883.218 919.050h-742.437c-77.625 0-140.781-63.143-140.781-140.781v-454.356c0-77.462 62.881-140.507 140.282-140.781v-206.181l296.306 206.181h446.631c77.625 0 140.781 63.156 140.781 140.781v454.356c0 77.637-63.156 140.781-140.781 140.781zM963.999 323.913c0-44.538-36.238-80.781-80.781-80.781h-465.456l-217.482-151.338v151.338h-59.5c-44.544 0-80.781 36.244-80.781 80.781v454.356c0 44.55 36.238 80.781 80.781 80.781h742.437c44.544 0 80.781-36.231 80.781-80.781zM274.067 707.043h475.862v-60h-475.862zM274.067 579.043h475.862v-60h-475.862zM274.067 451.043h475.862v-60h-475.862z" />
<glyph unicode="&#xe90c;" glyph-name="copy" d="M623-64h-382c-88.227 0-160 71.773-160 160v542c0 88.227 71.773 160 160 160h382c88.227 0 160-71.773 160-160v-542c0-88.227-71.773-160-160-160zM241 718c-44.109 0-80-35.891-80-80v-542c0-44.109 35.891-80 80-80h382c44.109 0 80 35.891 80 80v542c0 44.109-35.891 80-80 80zM943 196v604c0 88.227-71.773 160-160 160h-444c-22.094 0-40-17.906-40-40s17.906-40 40-40h444c44.109 0 80-35.891 80-80v-604c0-22.094 17.906-40 40-40s40 17.906 40 40z" />
<glyph unicode="&#xe90d;" glyph-name="study" d="M963.998 412.83v95.16c0 16.568-13.432 30-30 30-61.976 0-119.756-5.23-174.346-15.91-31.822 30.73-70.616 53.026-112.626 65.212 45.808 38.554 74.972 96.28 74.972 160.698 0 116.898-94.206 212-210 212s-210-95.102-210-212c0-64.418 29.164-122.144 74.974-160.696-42.010-12.188-80.804-34.484-112.626-65.212-54.59 10.678-112.37 15.91-174.346 15.91-16.568 0-30-13.432-30-30v-95.16c-34.918-12.384-60-45.73-60-84.84v-60c0-39.11 25.082-72.456 60-84.84v-95.16c0-16.568 13.432-30 30-30 156.858 0 285.663-37.166 405.359-116.962 10.030-6.684 23.242-6.7 33.282 0 119.696 79.796 248.5 116.962 405.359 116.962 16.568 0 30 13.432 30 30v95.16c34.918 12.384 60 45.73 60 84.84v60c-0.004 39.108-25.086 72.454-60.004 84.838zM361.999 747.988c0 83.814 67.29 152 150 152s150-68.186 150-152c0-82.71-67.29-150-150-150s-150 67.29-150 150zM90 237.99c-16.542 0-30 13.458-30 30v60c0 16.542 13.458 30 30 30s30-13.458 30-30v-60c0-16.542-13.458-30-30-30zM481.999 19.821c-108.906 62.282-225.772 93.76-361.999 97.738v65.592c34.918 12.384 60 45.73 60 84.84v60c0 39.11-25.082 72.456-60 84.84v64.736c140.962-4.046 254.268-37.24 361.999-105.832v-351.913zM511.999 423.712c-55.372 34.938-113.008 61.54-174.536 80.234 33.808 21.972 73.606 34.044 114.536 34.044h120c40.93 0 80.728-12.072 114.536-34.044-61.528-18.694-119.166-45.296-174.536-80.234zM903.998 117.559c-136.226-3.978-253.096-35.464-361.999-97.742v351.893c107.734 68.598 221.032 101.812 361.999 105.856v-64.736c-34.918-12.384-60-45.73-60-84.84v-60c0-39.11 25.082-72.456 60-84.84v-65.592zM963.998 267.99c0-16.542-13.458-30-30-30s-30 13.458-30 30v60c0 16.542 13.458 30 30 30s30-13.458 30-30v-60z" />
<glyph unicode="&#xe90e;" glyph-name="right" d="M47.612 400.387h813.82l-223.435-223.443c-18.596-18.596-18.596-48.741 0-67.336 18.6-18.592 48.744-18.592 67.336 0l304.717 304.724c18.6 18.596 18.6 48.741 0 67.336l-304.724 304.724c-9.29 9.29-21.483 13.945-33.668 13.945s-24.367-4.655-33.668-13.945c-18.596-18.596-18.596-48.741 0-67.336l223.443-223.443h-813.82c-26.294 0-47.613-21.323-47.613-47.613 0-26.294 21.319-47.613 47.613-47.613z" />
<glyph unicode="&#xe90f;" glyph-name="left" d="M976.388 495.613h-813.82l223.435 223.443c18.596 18.596 18.596 48.741 0 67.336-18.6 18.592-48.744 18.592-67.336 0l-304.717-304.724c-18.6-18.596-18.6-48.741 0-67.336l304.724-304.724c9.29-9.29 21.483-13.945 33.668-13.945s24.367 4.655 33.668 13.945c18.596 18.596 18.596 48.741 0 67.336l-223.443 223.443h813.82c26.294 0 47.613 21.323 47.613 47.613 0 26.294-21.319 47.613-47.613 47.613z" />
<glyph unicode="&#xe910;" glyph-name="donation" d="M256 554.752l-51.488 37.984c-13.36-18.148-25.698-37.024-36.96-56.544l55.424-32c10.058 17.456 21.082 34.334 33.024 50.56zM195.52 450.144l-58.496 25.952c-9.146-20.56-17.158-41.604-24-63.040l60.8-19.488c6.212 19.234 13.454 38.12 21.696 56.576zM696.8 699.104c32.604 8.22 66.834 7.402 99.008-2.368l17.184 61.664c-39.52 11.56-81.27 13.264-121.6 4.96l26.944 62.848c20.872 48.738-1.718 105.168-50.456 126.040-11.956 5.12-24.826 7.758-37.832 7.752h-253.888c-53.020-0.006-95.996-42.992-95.99-96.010 0.002-13 2.644-25.864 7.766-37.814l46.944-109.376c-31.842-20.228-61.012-44.386-86.816-71.904l46.4-44.064c26.296 28.28 56.84 52.29 90.528 71.168h236.224c129.568-70.944 233.888-255.552 233.888-416 0-211.584-191.424-256-352-256s-352 44.416-352 256c0.12 26.634 2.778 53.198 7.936 79.328l-62.848 12.096c-5.91-30.12-8.954-60.73-9.088-91.424 0-206.336 147.744-320 416-320s416 113.664 416 320c-5.138 173.256-86.49 335.408-222.304 443.104zM659.456 851.2l-49.44-115.2h-213.824l-49.44 115.2c-7.070 16.198 0.33 35.060 16.528 42.128 4.062 1.772 8.448 2.682 12.88 2.672h253.888c17.674 0.044 32.036-14.248 32.080-31.92 0.010-4.432-0.9-8.818-2.672-12.88zM936.896 698.592c-18.842 12.632-38.466 24.058-58.752 34.208l-28.48-57.312c17.834-8.984 35.084-19.084 51.648-30.24l35.584 53.344zM684.8 265.376c56.426 56.42 56.432 147.898 0.014 204.326-48.506 48.512-124.438 56.226-181.71 18.458-66.614 43.928-156.226 25.538-200.154-41.074-37.768-57.27-30.054-133.204 18.458-181.71l181.696-181.696 181.696 181.696zM366.656 424.448c31.46 31.364 82.364 31.364 113.824 0l22.624-22.624 22.624 22.624c31.432 31.432 82.392 31.432 113.824 0s31.432-82.392 0-113.824l-136.448-136.448-136.448 136.448c-31.364 31.46-31.364 82.364 0 113.824z" />
<glyph unicode="&#xe911;" glyph-name="user" d="M512.001 383.222c-307.674 0-477.12-145.552-477.12-409.85 0-20.642 16.73-37.372 37.372-37.372h879.494c20.642 0 37.372 16.73 37.372 37.372 0.002 264.284-169.444 409.85-477.118 409.85zM110.985 10.744c14.7 197.612 149.426 297.732 401.016 297.732s386.318-100.12 401.030-297.732h-802.046zM512.001 960c-141.33 0-247.902-108.716-247.902-252.874 0-148.38 111.208-269.080 247.902-269.080s247.902 120.7 247.902 269.068c0 144.17-106.572 252.886-247.902 252.886zM512.001 512.778c-95.486 0-173.158 87.178-173.158 194.336 0 103.222 72.826 178.142 173.158 178.142 98.726 0 173.158-76.576 173.158-178.142 0-107.158-77.672-194.336-173.158-194.336z" />
<glyph unicode="&#xe912;" glyph-name="like" d="M1024 352.001c0 25.642-10.198 49.536-27.776 67.158 19.926 21.802 30.080 51.030 27.306 81.45-4.992 54.23-53.846 96.726-111.274 96.726h-263.552c13.056 39.638 33.962 112.298 33.962 170.666 0 92.544-78.634 170.666-128 170.666-44.288 0-75.99-24.96-77.312-25.984-5.078-4.054-8.022-10.198-8.022-16.682v-144.682l-122.922-266.198-5.078-2.602v8.15c0 11.776-9.558 21.334-21.334 21.334h-213.332c-58.836-0.002-106.666-47.832-106.666-106.668v-341.334c0-58.838 47.83-106.666 106.666-106.666h128c46.122 0 85.546 29.44 100.394 70.528 35.5-18.262 83.286-27.862 112.94-27.862h391.638c46.464 0 87.126 31.318 96.682 74.496 4.906 22.272 2.048 44.672-7.68 64.128 31.488 15.83 52.694 48.384 52.694 85.376 0 15.104-3.456 29.568-9.984 42.624 31.488 15.872 52.65 48.384 52.65 85.376zM934.016 299.351c-8.234-0.982-15.19-6.57-17.834-14.464-2.602-7.894-0.426-16.554 5.632-22.272 10.838-10.198 16.854-23.936 16.854-38.614 0-26.922-20.352-49.536-47.274-52.65-8.234-0.982-15.19-6.57-17.834-14.464-2.602-7.894-0.426-16.554 5.632-22.272 14.038-13.226 19.67-31.786 15.446-50.902-5.248-23.808-28.374-41.046-54.998-41.046h-391.64c-34.646 0-92.758 16.256-112.896 36.438-6.102 6.058-15.318 7.85-23.254 4.608-7.978-3.286-13.184-11.094-13.184-19.712 0-35.286-28.714-64-64-64h-128c-35.286 0-64 28.714-64 64v341.334c0 35.286 28.714 64 64 64h192v-21.334c0-7.382 3.84-14.25 10.154-18.176 6.23-3.754 14.080-4.138 20.736-0.896l42.666 21.334c4.31 2.134 7.766 5.718 9.814 10.112l128 277.334c1.28 2.816 1.962 5.888 1.962 8.96v137.77c8.876 4.906 24.28 11.562 42.668 11.562 23.382 0 85.334-58.112 85.334-128 0-75.094-40.874-183.338-41.258-184.406-2.474-6.528-1.622-13.91 2.346-19.712 4.010-5.76 10.582-9.216 17.578-9.216h293.59c35.584 0 65.792-25.472 68.778-57.984 2.262-24.32-9.43-47.446-30.378-60.374-6.528-4.010-10.41-11.264-10.112-18.986s4.736-14.634 11.562-18.176c18.048-9.174 29.226-27.264 29.226-47.146 0.002-26.922-20.35-49.536-47.316-52.65zM320 469.335c-11.776 0-21.334-9.558-21.334-21.334v-384c0-11.776 9.558-21.334 21.334-21.334s21.334 9.558 21.334 21.334v384c0 11.776-9.558 21.334-21.334 21.334z" />
<glyph unicode="&#xe913;" glyph-name="aparat" d="M454.9 929.39l-116.278 26.247c-94.854 21.423-189.090-38.103-210.513-132.959l-26.49-117.248c76.315 121.182 204.423 206.39 353.28 223.959zM30.612 390.9l-26.247-116.278c-21.423-94.854 38.103-189.090 132.959-210.513l117.248-26.49c-121.182 76.342-206.39 204.423-223.959 353.28zM886.677 831.894l-117.248 26.49c121.182-76.315 206.39-204.423 223.959-353.254l26.247 116.278c21.423 94.801-38.103 189.063-132.959 210.486zM569.101-33.388l116.278-26.247c94.854-21.423 189.090 38.103 210.513 132.959l26.49 117.248c-76.315-121.182-204.423-206.39-353.28-223.959zM512 879.159c-238.134 0-431.158-193.025-431.158-431.158s193.025-431.158 431.158-431.158 431.158 193.025 431.158 431.158-193.025 431.158-431.158 431.158zM404.212 744.423c59.526 0 107.789-48.263 107.789-107.789s-48.263-107.789-107.789-107.789-107.789 48.263-107.789 107.789c0 59.526 48.263 107.789 107.789 107.789zM323.37 232.421c-59.526 0-107.789 48.263-107.789 107.789s48.263 107.789 107.789 107.789 107.789-48.263 107.789-107.789c0-59.526-48.263-107.789-107.789-107.789zM458.106 448.001c0 29.776 24.117 53.895 53.895 53.895s53.895-24.117 53.895-53.895c0-29.776-24.117-53.895-53.895-53.895s-53.895 24.117-53.895 53.895zM619.789 151.579c-59.526 0-107.789 48.263-107.789 107.789s48.263 107.789 107.789 107.789 107.789-48.263 107.789-107.789c0-59.526-48.263-107.789-107.789-107.789zM700.631 448.001c-59.526 0-107.789 48.263-107.789 107.789s48.263 107.789 107.789 107.789 107.789-48.263 107.789-107.789c0-59.526-48.263-107.789-107.789-107.789z" />
<glyph unicode="&#xe914;" glyph-name="save" d="M844.805 895.493v-919.495c0-0.007 0-0.015 0-0.023 0-14.366-7.838-26.902-19.471-33.565l-0.189-0.1c-5.403-3.126-11.886-4.97-18.8-4.97-7.408 0-14.321 2.118-20.167 5.78l0.159-0.093-274.313 169.41-274.261-170.639c-5.728-3.638-12.704-5.798-20.186-5.798-6.884 0-13.339 1.828-18.909 5.026l0.185-0.098c-11.824 6.788-19.66 19.341-19.66 33.725 0 0.023 0 0.046 0 0.069v-0.004 920.775c0 35.531 28.67 64.508 63.996 64.508h537.566c35.377-0.051 64.047-28.977 64.047-64.559zM768.010 882.592h-511.968v-838.502l235.812 146.679c5.736 3.628 12.718 5.781 20.203 5.781 7.417 0 14.339-2.114 20.199-5.773l-0.161 0.094 235.915-145.706z" />
<glyph unicode="&#xe915;" glyph-name="edit" d="M717.227 405.333h-514.56c-17.664 0-32 14.336-32 32v192c0 17.664 14.336 32 32 32h618.667c17.664 0 32-14.336 32-32v-96c0-17.664-14.336-32-32-32s-32 14.336-32 32v64h-554.667v-128h482.56c17.664 0 32-14.336 32-32s-14.336-32-32-32zM589.653 277.76h-384.853c-17.664 0-32 14.336-32 32s14.336 32 32 32h384.853c17.664 0 32-14.336 32-32s-14.336-32-32-32zM462.507 149.76h-257.707c-17.664 0-32 14.336-32 32s14.336 32 32 32h257.707c17.664 0 32-14.336 32-32s-14.336-32-32-32zM534.485-64c-8.405 0-16.597 3.328-22.613 9.387-7.381 7.381-10.709 17.877-8.875 28.203l22.613 128.213c1.152 6.443 4.267 12.416 8.875 17.067l316.8 316.757c13.483 13.483 27.776 21.888 42.496 24.96 20.352 4.267 40.064-1.92 55.552-17.451l52.779-52.779c29.099-29.099 29.099-76.459 0-105.6l-316.757-316.8c-4.651-4.651-10.624-7.765-17.067-8.875l-128.213-22.613c-1.877-0.299-3.712-0.469-5.589-0.469zM662.741-9.387h0.427zM586.88 80.725l-12.928-73.259 73.259 12.928 309.632 309.675c4.139 4.181 4.139 10.923 0 15.104l-52.395 52.395c-0.427-0.811-3.627-2.859-7.936-7.125zM419.413 21.333h-302.080c-64.725 0-117.333 52.608-117.333 117.333v704c0 64.725 52.608 117.333 117.333 117.333h789.333c64.725 0 117.333-52.608 117.333-117.333v-311.040c0-17.664-14.336-32-32-32s-32 14.336-32 32v311.040c0 29.397-23.936 53.333-53.333 53.333h-789.333c-29.397 0-53.333-23.936-53.333-53.333v-704c0-29.397 23.936-53.333 53.333-53.333h302.080c17.664 0 32-14.336 32-32s-14.336-32-32-32zM992 746.667h-960c-17.664 0-32 14.336-32 32s14.336 32 32 32h960c17.664 0 32-14.336 32-32s-14.336-32-32-32z" />
<glyph unicode="&#xe916;" glyph-name="check" d="M512 960c-282.32 0-512-229.684-512-512s229.68-512 512-512 512 229.684 512 512-229.68 512-512 512zM512 35.096c-227.674 0-412.904 185.228-412.904 412.904s185.23 412.904 412.904 412.904 412.904-185.23 412.904-412.904-185.23-412.904-412.904-412.904zM691.676 631.68l-245.74-245.738-130.128 130.124-70.068-70.068 200.196-200.198 315.808 315.812z" />
<glyph unicode="&#xe917;" glyph-name="email" d="M934 838h-844c-49.564 0-90-40.392-90-90v-600c0-49.44 40.256-90 90-90h844c49.44 0 90 40.256 90 90v600c0 49.44-40.256 90-90 90zM921.572 778l-407.664-407.666-411.19 407.666h818.854zM60 160.424v575.438l288.958-286.48-288.958-288.958zM102.426 118l289.14 289.14 101.314-100.444c11.728-11.628 30.654-11.59 42.334 0.092l98.786 98.786 287.574-287.574h-819.148zM964 160.426l-287.574 287.574 287.574 287.576v-575.15z" />
<glyph unicode="&#xe918;" glyph-name="more" d="M121.905 569.905c-67.218 0-121.905-54.686-121.905-121.905s54.686-121.905 121.905-121.905c67.218 0 121.905 54.686 121.905 121.905s-54.686 121.905-121.905 121.905zM512 569.905c-67.218 0-121.905-54.686-121.905-121.905s54.686-121.905 121.905-121.905c67.218 0 121.905 54.686 121.905 121.905s-54.686 121.905-121.905 121.905zM902.095 569.905c-67.218 0-121.905-54.686-121.905-121.905s54.686-121.905 121.905-121.905c67.218 0 121.905 54.686 121.905 121.905s-54.686 121.905-121.905 121.905z" />
<glyph unicode="&#xe919;" glyph-name="plus1" d="M954.181 541.090h-349.092v349.092c0 38.54-31.278 69.818-69.818 69.818h-46.543c-38.54 0-69.818-31.278-69.818-69.818v-349.092h-349.092c-38.54 0-69.818-31.278-69.818-69.818v-46.543c0-38.54 31.278-69.818 69.818-69.818h349.092v-349.092c0-38.54 31.278-69.818 69.818-69.818h46.543c38.54 0 69.818 31.278 69.818 69.818v349.092h349.092c38.54 0 69.818 31.278 69.818 69.818v46.543c0 38.54-31.278 69.818-69.818 69.818z" />
<glyph unicode="&#xe91a;" glyph-name="exclamation" d="M512 960c-283.006 0-512-229.014-512-512 0-283.006 229.014-512 512-512 283.006 0 512 229.014 512 512 0 283.006-229.014 512-512 512zM512 16c-238.786 0-432 193.23-432 432 0 238.786 193.23 432 432 432 238.786 0 432-193.23 432-432 0-238.786-193.23-432-432-432zM512 702.246c-22.092 0-40-17.908-40-40v-257.586c0-22.092 17.908-40 40-40s40 17.908 40 40v257.586c0 22.092-17.908 40-40 40zM566 261.68c0-29.823-24.177-54-54-54s-54 24.177-54 54c0 29.823 24.177 54 54 54s54-24.177 54-54z" />
<glyph unicode="&#xe91b;" glyph-name="eyeglasses" d="M994 600.18h-70.922c-37.606 35.636-88.36 57.526-144.134 57.526-65.632 0-124.31-30.316-162.792-77.672-60.716 48.092-147.488 48.174-208.308 0-38.482 47.356-97.158 77.672-162.792 77.672-55.774 0-106.528-21.892-144.134-57.526h-70.918c-16.568 0-30-13.432-30-30s13.432-30 30-30h26.728c-13.68-27.838-21.38-59.124-21.38-92.18 0-115.632 94.074-209.706 209.706-209.706s209.706 94.074 209.706 209.706c0 28.222-5.618 55.154-15.77 79.754 41.142 37.808 104.822 37.86 146.022 0-10.154-24.6-15.77-51.532-15.77-79.754 0-115.632 94.074-209.706 209.706-209.706s209.706 94.074 209.706 209.706c0 33.056-7.698 64.342-21.38 92.18h26.726c16.568 0 30 13.432 30 30s-13.432 30-30 30zM245.054 298.294c-82.548 0-149.706 67.158-149.706 149.706s67.158 149.706 149.706 149.706 149.706-67.158 149.706-149.706-67.158-149.706-149.706-149.706zM778.946 298.294c-82.548 0-149.706 67.158-149.706 149.706s67.158 149.706 149.706 149.706 149.706-67.158 149.706-149.706-67.158-149.706-149.706-149.706z" />
<glyph unicode="&#xe91c;" glyph-name="trash" d="M938.666 789.334h-213.334v128c0.002 23.552-19.070 42.666-42.666 42.666h-341.332c-23.594 0-42.666-19.114-42.666-42.666v-128h-213.334c-23.594 0-42.666-19.114-42.666-42.666s19.070-42.668 42.666-42.668h42.666v-640c0-70.57 57.43-128 128-128h512c70.57 0 128 57.43 128 128v640h42.666c23.594 0 42.666 19.114 42.666 42.666s-19.070 42.668-42.666 42.668zM384 874.666h256v-85.334h-256v85.334zM810.666 64c0-23.51-19.114-42.666-42.666-42.666h-512c-23.552 0-42.666 19.158-42.666 42.666v640h597.334v-640zM384 618.666c-23.594 0-42.666-19.114-42.666-42.666v-384c0-23.552 19.072-42.666 42.666-42.666s42.666 19.114 42.666 42.666v384c0 23.552-19.072 42.666-42.666 42.666zM640 618.666c-23.594 0-42.666-19.114-42.666-42.666v-384c0-23.552 19.072-42.666 42.666-42.666s42.666 19.114 42.666 42.666v384c0 23.552-19.072 42.666-42.666 42.666z" />
<glyph unicode="&#xe91d;" glyph-name="menu" d="M0 806.4h1024v-102.4h-1024v102.4zM0 499.2h1024v-102.4h-1024v102.4zM0 192h1024v-102.4h-1024v102.4z" />
<glyph unicode="&#xe91e;" glyph-name="minus" d="M0 565.567h1024v-235.134h-1024v235.134z" />
<glyph unicode="&#xe91f;" glyph-name="close-icon" d="M413.939 448.051l-413.939 413.939 95.262 95.262 416.738-416.738 416.738 416.738 95.262-95.262-413.939-413.939 413.939-413.939-95.262-95.262-416.738 416.738-416.738-416.84-95.262 95.262z" />
<glyph unicode="&#xe920;" glyph-name="facebook" d="M580.398-64h-163.984c-27.391 0-49.672 22.281-49.672 49.672v369.875h-95.672c-27.391 0-49.672 22.289-49.672 49.672v158.492c0 27.391 22.281 49.672 49.672 49.672h95.672v79.367c0 78.695 24.711 145.648 71.453 193.609 46.953 48.18 112.57 73.641 189.758 73.641l125.063-0.203c27.344-0.047 49.586-22.328 49.586-49.672v-147.156c0-27.391-22.273-49.672-49.656-49.672l-84.203-0.031c-25.68 0-32.219-5.148-33.617-6.727-2.305-2.617-5.047-10.016-5.047-30.445v-62.703h116.539c8.773 0 17.273-2.164 24.578-6.242 15.758-8.805 25.555-25.453 25.555-43.445l-0.063-158.492c0-27.375-22.281-49.656-49.672-49.656h-116.938v-369.883c0-27.391-22.289-49.672-49.68-49.672zM426.773-3.969h143.266v386.391c0 18.289 14.883 33.164 33.164 33.164h133.453l0.055 137.766h-133.516c-18.281 0-33.156 14.875-33.156 33.164v89.578c0 23.453 2.383 50.125 20.086 70.172 21.391 24.234 55.102 27.031 78.602 27.031l73.844 0.031v126.453l-114.664 0.188c-124.047 0-201.133-79.406-201.133-207.219v-106.234c0-18.281-14.875-33.164-33.156-33.164h-112.188v-137.766h112.188c18.281 0 33.156-14.875 33.156-33.164zM752.898 899.766h0.008z" />
<glyph unicode="&#xe921;" glyph-name="folder" d="M928 32h-832c-53.023 0-96 42.984-96 96v640c0 53.016 42.977 96 96 96h275.203c16.547 0.039 32.461-6.375 44.352-17.891l109.242-104.766c1.625-1.625 3.078-3.414 4.32-5.344h398.883c53.023 0 96-42.984 96-96v-512c0-53.016-42.984-96-96-96zM96 800c-17.672 0-32-14.328-32-32v-640c0-17.672 14.328-32 32-32h832c17.672 0 32 14.328 32 32v512c0 17.672-14.328 32-32 32h-398.883c-19.953 0-38.773 9.313-50.875 25.188l-107.039 102.813z" />
<glyph unicode="&#xe922;" glyph-name="fill-favorite" d="M942.766 814.359c-53.008 57.492-125.742 89.156-204.82 89.156-59.109 0-113.242-18.688-160.898-55.539-24.047-18.602-45.836-41.359-65.047-67.922-19.203 26.555-41 49.32-65.055 67.922-47.648 36.852-101.781 55.539-160.891 55.539-79.078 0-151.82-31.664-204.828-89.156-52.375-56.82-81.227-134.445-81.227-218.586 0-86.602 32.273-165.875 101.563-249.484 61.984-74.788 151.070-150.711 254.234-238.625 35.227-30.023 75.156-64.055 116.617-100.305 10.953-9.594 25.008-14.875 39.586-14.875 14.57 0 28.633 5.281 39.57 14.859 41.461 36.258 81.414 70.305 116.656 100.344 103.148 87.898 192.234 163.813 254.219 238.609 69.289 83.602 101.555 162.874 101.555 249.484 0 84.133-28.852 161.758-81.234 218.578z" />
<glyph unicode="&#xe923;" glyph-name="heart" d="M804.353 902.022c-33.268 37.388-79.382 57.978-129.85 57.978-56.332 0-105.162-26.636-141.212-77.026-2.704-3.778-5.232-7.556-7.602-11.296-2.368 3.742-4.896 7.518-7.6 11.296-36.052 50.39-84.882 77.026-141.214 77.026-50.468 0-96.584-20.59-129.85-57.976-31.568-35.48-48.956-82.912-48.956-133.558 0-55.038 21.358-105.824 67.208-159.832 40.006-47.12 97.39-95.554 163.838-151.638 24.554-20.726 49.946-42.156 76.928-65.542 5.636-4.884 12.64-7.328 19.644-7.328 7.002 0 14.006 2.444 19.644 7.328 26.978 23.38 52.366 44.81 76.92 65.532 42.674 36.020 79.528 67.126 111.51 97.298 62.092 58.584 119.548 125.078 119.548 214.18 0 50.648-17.386 98.078-48.956 133.558zM692.597 597.92c-30.772-29.034-67.040-59.644-109.034-95.088-18.682-15.766-37.842-31.938-57.872-49.114-20.034 17.174-39.2 33.35-57.882 49.12-130.798 110.398-209.75 177.034-209.75 265.626-0.004 74.994 51.076 131.546 118.816 131.546 36.19 0 66.968-17.036 91.478-50.634 20.116-27.572 28.374-56.156 28.43-56.348 3.6-12.994 15.424-21.99 28.906-21.99s25.306 8.996 28.906 21.99c0.296 1.070 30.66 106.982 119.91 106.982 67.738 0 118.82-56.554 118.82-131.546 0-54.338-28.242-102.154-100.728-170.546zM933.905 355.908c-24.882 0-48.884-10.446-65.85-28.658l-88.154-94.636c-11.394 36.632-45.61 63.306-85.942 63.306h-138.56c-19.398 0-38.104 7.058-52.668 19.874-78.326 68.928-196.058 69.534-275.126 1.906-16.306 23.086-43.174 38.206-73.526 38.206h-123.972c-16.564 0-29.994-13.428-29.994-29.994v-359.918c0-16.564 13.428-29.994 29.994-29.994h123.972c26.936 0 51.128 11.914 67.632 30.73l17.762-4.992c60.756-17.078 123.56-25.736 186.67-25.736h267.814c65.732 0 128.522 31.396 167.962 83.982l143.998 191.994c0.002 0.004 0.004 0.008 0.008 0.012 11.75 15.668 17.96 34.32 17.96 53.942 0 49.614-40.366 89.978-89.98 89.978zM184.075 25.984c0-16.538-13.454-29.994-29.994-29.994h-93.98v299.932h93.98c16.538 0 29.994-13.454 29.994-29.994v-239.946zM957.931 247.974c0-0.002-0.002-0.002-0.004-0.004l-143.996-191.998c-28.172-37.562-73.022-59.986-119.974-59.986h-267.808c-57.622 0-114.966 7.906-170.438 23.498l-11.73 3.298c0.038 1.064 0.082 2.126 0.082 3.198v226.39l20.902 18.394c56.48 49.7 141.662 49.704 198.146 0 25.522-22.458 58.296-34.826 92.294-34.826h138.56c16.538 0 29.994-13.456 29.994-29.994s-13.454-29.994-29.994-29.994h-213.17c-16.564 0-29.994-13.428-29.994-29.994s13.428-29.994 29.994-29.994h233.268c24.882 0 48.88 10.442 65.842 28.65l132.046 141.752c5.742 6.164 13.54 9.558 21.956 9.558 16.538 0 29.994-13.454 29.994-29.994 0-6.54-2.064-12.748-5.968-17.954z" />
<glyph unicode="&#xe924;" glyph-name="layers" d="M1001.893 483.779l-164.446 82.219 164.446 82.227c29.414 14.703 29.445 56.828 0 71.555l-472.002 236.001c-11.266 5.625-24.516 5.625-35.781 0l-472.002-236.001c-29.414-14.711-29.445-56.836 0-71.555l164.446-82.227-164.446-82.219c-29.414-14.711-29.445-56.828 0-71.555l164.446-82.227-164.446-82.219c-29.414-14.711-29.445-56.828 0-71.555l472.002-236.001c11.242-5.617 24.492-5.641 35.781 0l472.002 236.001c29.414 14.711 29.445 56.828 0 71.555l-164.446 82.219 164.446 82.227c29.414 14.703 29.445 56.828 0 71.555zM512 875.281l382.556-191.282-382.556-191.274-382.556 191.274zM894.556 211.997l-382.556-191.274-382.556 191.274 146.555 73.282 218.11-109.055c11.25-5.617 24.492-5.641 35.781 0l218.11 109.055zM512 256.723l-382.556 191.274 146.555 73.282 218.11-109.055c11.25-5.617 24.492-5.641 35.781 0l218.11 109.055 146.555-73.282z" />
<glyph unicode="&#xe925;" glyph-name="favorite" d="M949.288 811.46c-50.506 57.308-120.572 88.868-197.288 88.868-107.896 0-176.206-64.44-214.51-118.5-9.938-14.028-18.392-28.094-25.49-41.33-7.098 13.236-15.55 27.302-25.49 41.33-38.304 54.060-106.614 118.5-214.51 118.5-76.716 0-146.782-31.562-197.29-88.87-48.176-54.668-74.71-127.884-74.71-206.16 0-85.206 33.266-164.456 104.69-249.4 63.834-75.92 155.668-154.176 262.010-244.794 39.626-33.768 80.604-68.688 124.23-106.858l1.31-1.148c5.656-4.952 12.708-7.426 19.76-7.426s14.104 2.476 19.76 7.426l1.31 1.148c43.626 38.17 84.604 73.088 124.236 106.862 106.336 90.612 198.17 168.868 262.004 244.79 71.424 84.946 104.69 164.194 104.69 249.4 0 78.276-26.534 151.492-74.712 206.162zM618.386 156.772c-34.16-29.108-69.316-59.066-106.386-91.292-37.068 32.222-72.226 62.182-106.392 91.296-208.118 177.346-345.608 294.508-345.608 448.522 0 63.66 21.21 122.788 59.724 166.49 38.956 44.198 93.034 68.54 152.276 68.54 82.258 0 135.432-50.676 165.552-93.188 27.018-38.128 41.116-76.564 45.924-91.318 4.022-12.35 15.536-20.708 28.524-20.708s24.502 8.358 28.524 20.708c4.808 14.754 18.906 53.19 45.924 91.32 30.12 42.51 83.294 93.186 165.552 93.186 59.242 0 113.32-24.342 152.274-68.54 38.516-43.702 59.726-102.83 59.726-166.49 0-154.014-137.49-271.176-345.614-448.526z" />
<glyph unicode="&#xe926;" glyph-name="linkedin" d="M15.626-59.87h265.142v697.226h-265.142zM75.626 577.356h145.142v-577.224h-145.142zM148.198 955.87c-81.718 0-148.198-66.482-148.198-148.198s66.48-148.2 148.198-148.2 148.2 66.482 148.2 148.2-66.484 148.198-148.2 148.198zM60 807.672c0 48.632 39.564 88.198 88.198 88.198s88.2-39.564 88.2-88.198-39.566-88.2-88.2-88.2-88.198 39.568-88.198 88.2zM1023.358 418.42c-9.436 135.71-122.636 240.288-262.978 240.288-62.774 0-122.032-21.824-168.722-60.548v39.2h-254.060v-697.226h265.144v381.328c0 42.976 34.962 77.94 77.94 77.94 42.974 0 77.938-34.964 77.938-77.958l0.256-381.312h265.124v477.644zM542.742 0.13h-145.144v577.228h134.058v-85.694l48.010-0.276 8.92 13.848c37.7 58.53 101.922 93.47 171.794 93.47 111.672 0 201.086-85.204 203.56-193.97l0.060-404.606h-145.164l-0.216 321.332c0 76.060-61.88 137.94-137.938 137.94-76.060 0-137.94-61.88-137.94-137.94z" />
<glyph unicode="&#xe927;" glyph-name="menu2" d="M102.4 755.2h819.2c56.552 0 102.4 45.848 102.4 102.4s-45.848 102.4-102.4 102.4h-819.2c-56.552 0-102.4-45.848-102.4-102.4s45.848-102.4 102.4-102.4zM921.6 550.4h-819.2c-56.552 0-102.4-45.848-102.4-102.4s45.848-102.4 102.4-102.4h819.2c56.552 0 102.4 45.848 102.4 102.4s-45.848 102.4-102.4 102.4zM921.6 140.8h-819.2c-56.552 0-102.4-45.848-102.4-102.4s45.848-102.4 102.4-102.4h819.2c56.552 0 102.4 45.848 102.4 102.4s-45.848 102.4-102.4 102.4z" />
<glyph unicode="&#xe928;" glyph-name="planet" d="M943.66 677.476c82.753 129.772 101.351 214.405 56.84 258.916-46.601 46.392-136.668 24.45-275.425-67.289-69.379 41.376-150.46 65.408-236.974 65.408-255.364 0-462.455-207.091-462.455-462.455 0-86.723 23.823-167.804 65.408-236.974-91.948-138.966-113.89-229.033-67.498-275.425 15.673-15.673 36.152-23.614 62.065-23.614 47.646 0 112.845 26.748 196.852 80.245 12.12 7.732 24.659 16.091 37.406 24.868 52.034-20.27 108.874-31.555 168.013-31.555 255.364 0 462.455 207.091 462.455 462.455 0 59.348-11.284 115.979-31.555 168.013 8.777 12.747 16.927 25.286 24.868 37.406zM939.062 874.955c2.926-21.315-17.763-73.558-65.199-148.161-21.524 32.391-46.81 62.065-75.439 87.977 83.171 51.616 126.219 61.438 140.638 60.184zM487.892 849.46c143.982 0 269.365-81.081 333.101-199.777-57.049-77.529-135.623-170.521-238.019-272.708-102.187-102.187-195.18-180.761-272.917-237.81-118.696 63.736-199.777 189.12-199.777 332.892 0.209 208.136 169.476 377.403 377.612 377.403zM84.994 20.886c-1.045 14.419 8.568 57.676 60.184 140.638 25.913-28.629 55.587-53.915 87.977-75.439-74.603-47.228-126.846-67.916-148.161-65.199zM865.504 472.057c0-208.136-169.267-377.612-377.612-377.612-28.629 0-56.422 3.135-83.171 9.195 76.902 59.975 158.401 132.697 238.646 212.942 80.036 80.036 152.759 161.744 212.942 238.646 6.060-26.748 9.195-54.751 9.195-83.171z" />
<glyph unicode="&#xe929;" glyph-name="profile" d="M512 960c-142.034 0-257.578-115.544-257.578-257.578s115.544-257.578 257.578-257.578 257.578 115.544 257.578 257.578-115.544 257.578-257.578 257.578zM512 520.602c-100.254 0-181.82 81.566-181.82 181.82s81.566 181.82 181.82 181.82 181.82-81.566 181.82-181.82c0-100.254-81.566-181.82-181.82-181.82zM512 353.934c-226.568 0-404.044-183.574-404.044-417.934h75.758c0 195.078 141.138 342.176 328.286 342.176s328.286-147.11 328.286-342.176h75.758c0 234.358-177.476 417.934-404.044 417.934z" />
<glyph unicode="&#xe92a;" glyph-name="eye" d="M1015.709 471.722c-154.666 190.197-321.663 286.759-496.811 286.759-69.391 0-139.617-15.467-209.008-45.773-54.551-24.036-108.684-57.268-160.727-98.861-87.992-70.436-139.826-140.662-141.916-143.588-10.032-13.795-9.614-32.605 1.045-45.982 154.457-190.406 321.663-286.759 496.811-286.759 69.391 0 139.617 15.467 209.008 45.773 54.551 24.036 108.684 57.268 160.727 98.861 87.992 70.436 139.826 140.662 141.916 143.588 10.032 13.795 9.614 32.605-1.045 45.982zM826.139 339.629c-72.735-57.895-187.271-126.868-321.036-126.868-144.424 0-285.296 79.214-419.061 235.552 21.11 24.872 59.776 66.464 111.61 107.848 72.735 57.895 187.271 126.868 321.036 126.868 144.424 0 285.296-79.214 419.061-235.552-21.11-24.872-59.776-66.673-111.61-107.848zM650.572 485.517c-20.692 0-37.621-16.93-37.621-37.621 0-55.805-45.355-101.16-101.16-101.16s-101.16 45.355-101.16 101.16c0 55.805 45.355 101.16 101.16 101.16 20.692 0 37.621 16.93 37.621 37.621s-16.93 37.621-37.621 37.621c-97.398 0-176.403-79.214-176.403-176.403s79.005-176.403 176.403-176.403c97.398 0 176.403 79.214 176.403 176.403 0 20.692-16.93 37.621-37.621 37.621z" />
<glyph unicode="&#xe92b;" glyph-name="reply" d="M543.999 0.007c-7.218 0-14.375 2.437-20.187 7.156l-512 415.999c-7.469 6.092-11.812 15.217-11.812 24.842s4.343 18.75 11.812 24.844l512 415.999c9.563 7.751 22.844 9.343 33.938 4.063 11.156-5.312 18.25-16.562 18.25-28.906v-225.062c249.813-16.532 448-225.030 448-478.937v-64c0-12.5-7.28-23.844-18.624-29.062-11.344-5.25-24.688-3.375-34.188 4.75l-53.938 46.218c-95.781 82.094-215.907 130.188-341.25 137.187v-223.094c0-12.344-7.094-23.594-18.25-28.906-4.376-2.063-9.063-3.095-13.751-3.093zM82.75 448.005l429.25-348.78v188.782c0 17.688 14.313 32.001 32.001 32.001 152.062 0 299.406-54.501 414.875-153.468l1.094-0.938c-3.001 226.813-188.438 410.405-415.967 410.405-17.688 0-32.001 14.313-32.001 32.001v188.78c-0.002 0-429.252-348.783-429.252-348.783z" />
<glyph unicode="&#xe92c;" glyph-name="search" d="M451.547 958.768c-248.98 0-451.547-202.012-451.547-450.315s202.568-450.315 451.547-450.315 451.549 202.012 451.549 450.315-202.568 450.315-451.549 450.315zM451.547 132.164c-208.168 0-377.523 168.812-377.523 376.291 0 207.49 169.354 376.291 377.523 376.291s377.523-168.8 377.523-376.291c0.002-207.478-169.352-376.291-377.523-376.291zM1013.097 0.486l-243.046 241.812c-14.496 14.41-37.926 14.348-52.348-0.136-14.41-14.496-14.348-37.924 0.136-52.348l243.046-241.812c7.23-7.18 16.656-10.77 26.106-10.77 9.512 0 19.012 3.64 26.242 10.906 14.41 14.498 14.348 37.926-0.136 52.348z" />
<glyph unicode="&#xe92d;" glyph-name="telegram" d="M1008.188 857.461c-12.508 15.297-31.242 23.719-52.758 23.719-11.695 0-24.086-2.461-36.82-7.328l-866.797-330.883c-46-17.555-52.195-43.898-51.797-58.039s8.078-40.094 55-55.023c0.281-0.086 0.562-0.172 0.844-0.25l179.797-51.453 97.234-278.047c13.258-37.906 43.016-61.453 77.672-61.453 21.852 0 43.344 9.156 62.156 26.469l111.211 102.398 161.305-129.883c0.016-0.016 0.039-0.023 0.055-0.039l1.531-1.234c0.141-0.109 0.289-0.227 0.43-0.336 17.93-13.906 37.5-21.25 56.617-21.258h0.008c37.352 0 67.094 27.648 75.758 70.43l142.023 701.281c5.703 28.148 0.922 53.336-13.469 70.93zM295.806 387.977l346.883 177.211-215.992-229.508c-3.539-3.758-6.047-8.359-7.281-13.367l-41.648-168.703zM432.071 109.313c-1.437-1.32-2.883-2.5-4.328-3.586l38.641 156.5 70.289-56.602zM962.852 798.446l-142.023-701.289c-1.367-6.711-5.734-22.328-16.961-22.328-5.547 0-12.516 3.023-19.648 8.516l-182.781 147.172c-0.023 0.023-0.055 0.047-0.086 0.062l-108.758 87.578 312.351 331.898c10 10.625 10.906 26.898 2.148 38.57-8.766 11.672-24.648 15.344-37.641 8.703l-513.734-262.453-182.242 52.141 866.531 330.781c7.32 2.797 12.43 3.383 15.422 3.383 1.836 0 5.102-0.219 6.312-1.711 1.594-1.945 3.625-8.578 1.109-21.023z" />
<glyph unicode="&#xe92e;" glyph-name="twitter" d="M15.028 120.578c95.801-60.792 207.295-92.913 322.412-92.913 168.579 0 323.058 64.758 435.028 182.332 107.14 112.529 166.078 263.733 163.146 417.178 40.614 34.75 88.386 101.104 88.386 165.776 0 24.791-26.904 40.528-48.719 27.895-38.157-22.42-72.95-28.283-108.735-18.238-73.079 71.225-181.858 86.229-273.52 36.82-80.108-43.115-124.644-122.015-120.635-208.244-135.337 16.513-260.37 84.376-347.548 189.834-14.314 17.203-41.476 15.177-52.858-4.312-41.993-71.915-41.563-155.256-5.044-222.558-17.376-3.061-28.111-17.677-28.111-33.5 0-67.647 30.439-129.818 79.461-172.243-9.14-8.795-12.158-21.859-8.278-33.5 21.557-64.758 70.363-115.375 131.37-140.726-66.354-31.689-139.735-42.252-205.054-34.233-33.802 4.57-50.488-40.873-21.298-59.369zM346.279 203.1c24.187 18.582 11.339 57.299-19.014 57.946-53.463 1.121-102.138 27.464-132.448 68.897 14.616 0.949 29.749 3.19 44.15 7.070 32.81 8.881 31.258 56.221-2.070 62.905-60.49 12.158-107.959 56.221-125.766 112.961 16.254-4.010 32.81-6.252 49.324-6.553 32.724-0.173 45.098 41.778 18.41 59.326-60.145 39.623-85.799 109.598-68.811 175.391 105.027-106.407 247.521-170.519 398.251-177.762 21.6-1.337 37.812 18.97 33.069 39.536-20.48 88.774 29.102 150.988 82.349 179.659 52.687 28.456 137.278 37.337 202.122-30.698 19.272-20.307 84.289-21.083 117.359-13.366-14.831-27.938-37.639-54.454-58.981-69.372-9.098-6.381-14.314-16.988-13.754-28.068 6.941-141.632-45.831-282.444-144.78-386.308-99.681-104.639-237.519-162.284-388.205-162.284-59.93 0-118.695 9.744-174.227 28.542 66.397 12.849 129.474 40.959 183.022 82.177z" />
<glyph unicode="&#xe92f;" glyph-name="whatsapp" d="M872.336 811.297c-96.195 95.836-224.164 148.648-360.359 148.703-135.891 0-264.063-52.766-360.891-148.578-97-95.977-150.469-223.523-150.594-358.68v-0.25c0.016-81.805 21.508-164.328 62.305-239.656l-60.906-276.836 280.023 63.695c70.922-35.742 150.055-54.586 229.867-54.617h0.203c135.867 0 264.039 52.773 360.883 148.594 97.086 96.055 150.578 223.438 150.641 358.68 0.039 134.289-53.641 261.766-151.172 358.945zM511.976 25h-0.18c-71.664 0.031-142.672 18.023-205.336 52.047l-13.242 7.188-186.203-42.352 40.445 183.813-7.797 13.445c-38.766 66.852-59.25 140.648-59.25 213.438 0.148 235.602 193.727 427.5 431.547 427.5 114.891-0.047 222.844-44.586 303.969-125.398 82.352-82.063 127.688-189.422 127.648-302.305-0.094-235.656-193.711-427.375-431.602-427.375zM372.797 676.273h-22.422c-7.805 0-20.477-2.922-31.195-14.586-10.727-11.672-40.953-39.883-40.953-97.258s41.93-112.813 47.773-120.602c5.852-7.781 80.938-129.281 199.859-176.023 98.836-38.844 118.953-31.117 140.398-29.172 21.453 1.938 69.227 28.203 78.977 55.43s9.75 50.57 6.828 55.445c-2.93 4.859-10.734 7.773-22.43 13.602-11.703 5.836-69.047 34.523-79.773 38.422-10.727 3.883-18.523 5.828-26.328-5.852-7.805-11.656-30.781-38.625-37.609-46.406-6.82-7.789-13.648-8.766-25.352-2.93-11.703 5.852-49 18.383-93.695 58.102-34.789 30.914-58.93 70.336-65.758 82.008-6.82 11.664-0.727 17.977 5.141 23.797 5.258 5.219 12.359 12.359 18.211 19.164 5.844 6.813 7.508 11.672 11.414 19.453 3.898 7.781 1.945 14.594-0.977 20.422-2.93 5.836-25.383 63.5-35.789 86.563h0.008c-8.766 19.422-17.992 20.078-26.328 20.422z" />
<glyph unicode="&#xe930;" glyph-name="close" d="M874.032 810.032c-199.958 199.958-524.149 199.958-724.065-0.004-199.956-199.956-199.956-524.145 0.008-724.061 199.908-199.956 524.099-199.956 724.057 0.004 199.958 199.912 199.958 524.101 0 724.061zM813.696 146.312c-166.635-166.635-436.791-166.635-603.382-0.008-166.635 166.597-166.635 436.753-0.004 603.386 166.593 166.633 436.749 166.633 603.382 0s166.631-436.787 0.004-603.378zM723.184 659.184c-16.662 16.662-43.678 16.662-60.34 0l-150.849-150.849-150.849 150.849c-16.662 16.662-43.678 16.662-60.34 0s-16.662-43.678 0-60.34l150.849-150.849-150.793-150.793c-16.662-16.662-16.662-43.678 0-60.34s43.678-16.662 60.34 0l150.793 150.793 150.837-150.837c16.662-16.662 43.678-16.662 60.34 0s16.662 43.678 0 60.34l-150.837 150.837 150.849 150.849c16.662 16.662 16.662 43.676 0 60.34z" />
<glyph unicode="&#xe931;" glyph-name="at" d="M742.992-11.040c-88.272-39.728-164.784-52.96-269.248-52.96-244.224 0-459.040 175.088-459.040 463.44 0 300.144 217.744 560.56 550.272 560.56 258.944 0 444.32-178.032 444.32-425.2 0-214.8-120.64-350.16-279.536-350.16-69.152 0-119.168 35.312-126.528 113.296h-2.944c-45.6-75.040-111.808-113.296-189.792-113.296-95.632 0-164.784 70.624-164.784 191.28 0 179.488 132.416 342.8 344.272 342.8 64.736 0 138.288-16.192 175.088-36.784l-44.128-272.192c-14.704-86.784-4.416-126.528 36.784-127.984 63.264-1.472 142.704 79.456 142.704 248.64 0 191.264-123.584 339.872-351.648 339.872-225.088 0-422.256-176.56-422.256-457.568 0-245.696 157.424-385.472 376.656-385.472 75.040 0 154.496 16.176 213.328 47.088l26.48-85.36zM612.048 596.592c-11.776 2.944-26.496 5.888-45.616 5.888-97.088 0-173.616-95.632-173.616-208.912 0-55.904 25.024-91.216 73.568-91.216 54.432 0 111.824 69.152 125.056 154.48l20.608 139.76z" />
<glyph unicode="&#xe932;" glyph-name="globe" d="M873.957 809.957c-200.037 200.041-523.844 200.073-723.913 0-200.043-200.041-200.073-523.844 0-723.915 200.037-200.041 523.844-200.071 723.913 0 200.043 200.041 200.071 523.844 0 723.915zM852.563 159.011c-23.916 21.387-49.5 40.313-76.466 56.624 17.823 61.568 28.383 129.318 30.879 199.745h150.495c-6.804-94.928-43.279-183.978-104.908-256.369zM66.529 415.38h150.495c2.496-70.427 13.055-138.177 30.879-199.745-26.966-16.311-52.549-35.237-76.466-56.624-61.63 72.391-98.102 161.44-104.908 256.369zM171.439 736.989c23.916-21.387 49.5-40.313 76.466-56.624-17.823-61.568-28.383-129.318-30.879-199.745h-150.497c6.806 94.927 43.279 183.976 104.91 256.369zM479.382 673.623c-53.201 3.805-104.497 16.908-152.052 38.525 27.657 71.22 78.644 156.64 152.052 177.809zM479.382 608.26v-127.642h-197.089c2.258 59.575 10.699 116.783 24.738 169.126 54.042-23.625 112.162-37.733 172.351-41.484zM479.382 415.38v-127.642c-60.189-3.751-118.309-17.859-172.351-41.484-14.039 52.343-22.48 109.551-24.738 169.126zM479.382 222.375v-216.331c-73.404 21.169-124.39 106.579-152.052 177.807 47.555 21.616 98.851 34.72 152.052 38.525zM544.62 222.375c53.201-3.805 104.497-16.908 152.052-38.525-27.659-71.222-78.644-156.638-152.052-177.807zM544.62 287.738v127.642h197.089c-2.258-59.575-10.699-116.783-24.738-169.126-54.042 23.625-112.162 37.733-172.351 41.484zM544.62 480.618v127.642c60.189 3.751 118.309 17.859 172.351 41.484 14.039-52.343 22.48-109.551 24.738-169.126zM544.62 673.623v216.331c73.408-21.169 124.394-106.589 152.052-177.809-47.555-21.614-98.851-34.718-152.052-38.523zM691.141 857.387c41.756-18.285 80.712-43.079 115.634-73.842-16.622-14.656-34.162-27.945-52.477-39.829-16.265 40.271-37.042 79.407-63.156 113.671zM269.703 743.716c-18.315 11.884-35.853 25.173-52.477 39.829 34.921 30.763 73.878 55.557 115.634 73.842-26.115-34.268-46.892-73.404-63.156-113.671zM269.705 152.282c16.263-40.269 37.044-79.407 63.156-113.671-41.756 18.285-80.712 43.079-115.634 73.842 16.622 14.656 34.162 27.945 52.477 39.829zM754.297 152.282c18.315-11.884 35.855-25.173 52.477-39.827-34.921-30.763-73.878-55.557-115.634-73.842 26.113 34.26 46.892 73.398 63.156 113.669zM806.978 480.618c-2.496 70.427-13.055 138.179-30.879 199.745 26.966 16.311 52.547 35.237 76.466 56.624 61.63-72.391 98.102-161.44 104.908-256.369z" />
<glyph unicode="&#xe933;" glyph-name="money" d="M1021.232 357.202c-2.252 3.846-5.712 6.84-9.843 8.512l-73.441 30.062 76.064 44.791c9.616 5.629 12.85 17.987 7.221 27.603-2.252 3.846-5.712 6.84-9.843 8.512l-73.441 30.062 76.064 44.791c6.643 3.997 10.408 11.447 9.685 19.167-0.583 7.624-5.427 14.267-12.509 17.15l-289.123 118.433-142.443 60.528c-2.313 0.915-4.777 1.392-7.263 1.412l-232.025 94.424c-5.697 2.366-12.164 1.992-17.553-1.009l-310.913-174.725c-9.952-5.011-13.957-17.142-8.946-27.094 2.285-4.54 6.202-8.050 10.963-9.828l75.055-31.071-77.073-42.975c-9.697-5.488-13.109-17.8-7.622-27.497 2.182-3.854 5.566-6.88 9.639-8.618l75.055-31.071-76.669-42.975c-10.252-4.368-15.019-16.222-10.65-26.471 2.277-5.344 6.746-9.445 12.265-11.258l75.055-30.869-76.669-42.975c-9.697-5.488-13.109-17.8-7.622-27.497 2.182-3.854 5.566-6.88 9.639-8.618l260.876-110.767c0.953-0.694 1.967-1.301 3.026-1.816l404.933-172.102c5.901-2.504 12.643-2.055 18.158 1.211l312.729 184.006c9.616 5.629 12.85 17.987 7.221 27.603-2.252 3.846-5.712 6.84-9.843 8.512l-73.441 30.062 76.064 44.791c9.616 5.627 12.847 17.987 7.221 27.603zM958.326 455.091l-268.947-158.382-240.498 102.091v67.186l234.042-99.468c2.489-1.059 5.165-1.609 7.869-1.614 3.622 0 7.175 0.976 10.29 2.825l193.085 113.591 64.16-26.229zM959.133 566.261l-269.754-158.382-218.507 92.81 246.148 164.435 242.113-98.863zM265.279 254.944l-197.927 84.134 67.993 38.133 130.136-55.282-0.202-66.984zM265.279 365.913l-197.927 84.134 67.993 38.536 130.136-55.282-0.202-67.388zM265.279 476.881l-197.927 83.932 67.993 38.133 130.136-55.282-0.202-66.783zM67.352 671.782l266.727 149.908 193.488-79.292-243.727-162.619-216.489 92.003zM417.406 513.198c-5.561-3.758-8.888-10.035-8.877-16.746v-302.641l-102.696 43.58v308.492l267.333 178.155 99.468-40.352-255.227-170.488zM958.326 233.154l-268.947-158.18-240.498 102.091v66.984l234.042-98.459c5.901-2.504 12.643-2.055 18.158 1.211l193.085 113.591 64.16-27.238zM689.379 185.942l-240.498 102.091v66.984l234.244-99.468c5.901-2.504 12.643-2.055 18.158 1.211l193.085 113.591 63.958-26.229-268.947-158.18z" />
<glyph unicode="&#xe934;" glyph-name="money1" d="M796.513 424.47l118.496 50.382c10.985 4.687 16.088 17.393 11.398 28.375-1.862 4.362-5.108 7.993-9.236 10.331l-58.815 33.732 57.734 24.434c10.985 4.687 16.088 17.393 11.398 28.375-1.862 4.362-5.108 7.993-9.236 10.331l-59.896 33.732 57.734 24.434c10.985 4.687 16.088 17.393 11.398 28.375-1.862 4.362-5.108 7.993-9.236 10.331l-59.896 33.732 57.734 24.434c10.985 4.687 16.088 17.393 11.398 28.375-1.862 4.362-5.108 7.993-9.236 10.331l-273.102 153.093c-5.776 3.216-12.706 3.616-18.812 1.081l-202.178-82.817c-2.446-0.097-4.86-0.608-7.136-1.514l-123.469-51.896-253.641-104.008c-11.128-4.338-16.631-16.874-12.293-27.999 1.743-4.473 4.927-8.241 9.049-10.706l59.464-35.030-56.221-23.353c-11.079-4.457-16.45-17.050-11.993-28.129 1.73-4.303 4.798-7.933 8.749-10.36l59.464-35.030-56.653-23.353c-11.071-4.479-16.412-17.085-11.933-28.156 1.792-4.427 5-8.136 9.122-10.549l59.464-35.030-56.221-24.002c-10.936-4.795-15.917-17.55-11.122-28.486 1.67-3.811 4.406-7.060 7.876-9.355l66.167-38.922v-302.726c0-72.006 124.334-110.927 241.316-110.927 78.925 0 160.877 17.731 206.070 51.463 43.247-31.57 119.793-51.463 206.502-51.463 116.982 0 241.316 38.922 241.316 110.927v268.129c0.219 64.005-97.735 101.629-201.526 109.414zM698.127 429.443v49.95l109.414 46.49 50.815-28.543-160.228-67.897zM698.127 526.315v49.95l109.414 46.49 50.815-28.543-160.228-67.897zM698.127 623.188v50.166l109.414 46.49 50.815-28.759-160.228-67.897zM633.257 914.453l225.098-126.28-180.554-76.33-204.989 136.875 160.445 65.735zM298.096 777.145l207.367-138.389-182.284-77.411-226.612 133.199 201.529 82.601zM143.49 616.917l167.148-98.386c5.914-3.5 13.136-3.981 19.461-1.297l199.15 84.547v-49.95l-101.629-43.247c-58.642 9.406-118.458 8.747-176.878-1.946l-154.174 91.034 46.923 19.245zM529.033 504.908v-27.462c-10.258 5.354-20.88 9.979-31.786 13.839l31.786 13.623zM103.27 404.793v-4.541l-6.703 3.892 6.919 2.811-0.216-2.162zM96.567 501.016l46.923 19.245 48.436-28.975c-15.142-5.652-29.64-12.898-43.247-21.623l-52.112 31.354zM542.439 46.927c0-27.678-77.195-67.681-198.069-67.681s-198.069 40.003-198.069 67.681v24.218c46.49-30.056 123.685-45.841 198.069-45.841s151.363 15.785 198.069 45.841v-24.218zM542.439 136.232c0-27.678-77.195-67.681-198.069-67.681s-198.069 40.003-198.069 67.681v24.218c46.49-30.056 123.685-45.841 198.069-45.841s151.363 15.785 198.069 45.841v-24.218zM542.439 225.536c0-27.678-77.195-67.681-198.069-67.681s-198.069 40.003-198.069 67.681v24.218c46.49-30.056 123.685-45.841 198.069-45.841s151.363 15.785 198.069 45.841v-24.218zM542.439 314.84c0-27.678-77.195-67.681-198.069-67.681s-198.069 40.219-198.069 67.681v25.083c46.49-30.056 123.685-45.841 198.069-45.841s151.363 15.785 198.069 45.841v-25.083zM344.586 336.679l-0.216-0.216c-120.874 0-198.069 40.219-198.069 67.681s77.195 67.681 198.069 67.681c120.874 0 198.285-39.787 198.285-67.032s-77.195-68.113-198.069-68.113zM562.765 652.379l-216.233 144.443 78.060 32.002 229.855-153.309v-259.479c-23.569-4.681-46.555-11.933-68.546-21.623v10.379c-0.17 13.879-4.879 27.321-13.406 38.273v191.366c-0.038 7.233-3.689 13.969-9.73 17.947zM955.011 46.927c0-27.678-77.195-67.681-198.069-67.681-84.763 0-147.471 19.677-177.743 40.868 4.181 8.325 6.4 17.496 6.487 26.813v9.514c54.385-21.88 112.649-32.473 171.256-31.138 74.384 0 151.363 15.785 198.069 45.841v-24.218zM955.011 136.232c0-27.678-77.195-67.681-198.069-67.681-59.256-2.203-118.125 10.431-171.256 36.76v40.003c54.385-21.88 112.649-32.473 171.256-31.138 74.384 0 151.363 15.785 198.069 45.841v-23.786zM955.011 225.536c0-27.678-77.195-67.681-198.069-67.681-59.256-2.214-118.128 10.422-171.256 36.76v40.652c54.385-21.88 112.649-32.473 171.256-31.138 74.384 0 151.363 15.785 198.069 45.841v-24.434zM756.942 247.159v0c-59.256-2.214-118.128 10.422-171.256 36.76v62.059c53.096 26.47 111.965 39.252 171.256 37.192 120.874 0 198.069-40.219 198.069-67.681s-76.979-68.33-198.069-68.33z" />
<glyph unicode="&#xe935;" glyph-name="play" d="M512 960c-282.77 0-512-229.23-512-512s229.23-512 512-512 512 229.23 512 512c-0.3 282.644-229.354 511.698-512 512zM512 9.142c-242.374 0-438.858 196.483-438.858 438.858s196.483 438.858 438.858 438.858 438.858-196.483 438.858-438.858c-0.261-242.267-196.59-438.596-438.858-438.858zM727.623 464.314c-3.544 7.11-9.306 12.874-16.419 16.419l-292.572 146.286c-18.069 9.028-40.033 1.701-49.063-16.367-2.539-5.081-3.859-10.684-3.857-16.365v-292.574c-0.009-20.199 16.356-36.579 36.555-36.589 5.681-0.002 11.284 1.318 16.365 3.857l292.572 146.286c18.077 9.009 25.429 30.969 16.419 49.046zM438.858 360.887v174.227l174.227-87.114-174.227-87.114z" />
<glyph unicode="&#xe936;" glyph-name="tools" d="M693.695 649.701c-11.039 0-20-8.938-20-19.992 0-11.047 8.961-20 20-20 11.063 0 20 8.953 20 20 0 11.055-8.938 19.992-20 19.992zM330.304 286.318c-11.063 0-20-8.961-20-20 0-11.063 8.938-20 20-20 11.039 0 20 8.938 20 20 0 11.039-8.961 20-20 20zM999.133 836.959c-6.75 1.57-13.844-0.469-18.719-5.391l-82.914-83.57h-39.75l-43.758 45.336v40.305l81.727 82.945c4.836 4.906 6.805 11.961 5.203 18.672-1.594 6.703-6.531 12.109-13.063 14.313-20.531 6.922-42.016 10.43-63.867 10.43-65.141 0-124.32-30.375-162.367-83.336-35.609-49.578-46.586-110.336-30.859-168.484l-147.32-147.32-245.438 246v48.281c0 7.023-3.688 13.539-9.711 17.148l-141.414 84.859c-7.875 4.727-17.945 3.484-24.43-3.008l-56.563-56.555c-6.484-6.492-7.727-16.563-3.008-24.438l84.844-141.414c3.609-6.023 10.117-9.703 17.141-9.711l48.266-0.016 245.461-246-146.758-146.758c-58.148 15.719-118.938 4.727-168.539-30.906-52.93-38.023-83.281-97.188-83.281-162.328 0-21.844 3.508-43.336 10.43-63.859 2.211-6.57 7.672-11.531 14.422-13.094 6.758-1.57 13.844 0.469 18.727 5.391l82.906 83.563h39.969l45.539-45.539v-39.969l-83.563-82.906c-4.922-4.883-6.961-11.969-5.391-18.727 1.563-6.75 6.523-12.211 13.094-14.422 20.523-6.922 42.016-10.43 63.859-10.43 65.141 0 124.297 30.359 162.328 83.289 35.633 49.602 46.625 110.383 30.906 168.531l117.867 117.867 27-29.328-12.391-12.383c-7.813-7.813-7.813-20.477 0-28.289 7.813-7.805 20.469-7.805 28.289 0l11.219 11.219 253.328-275.172c0.188-0.203 0.383-0.398 0.578-0.594 46.875-46.875 122.82-46.891 169.719 0.008 46.766 46.789 46.766 122.922 0 169.711-0.203 0.203-0.414 0.398-0.625 0.594l-275.602 252.844 11.094 11.094c7.813 7.805 7.813 20.469 0 28.281s-20.469 7.813-28.289 0l-12.305-12.313-29.383 26.969 118.438 118.438c16.836-4.5 34.211-6.781 51.813-6.781 110.281 0 199.992 89.719 199.992 199.992 0 21.852-3.508 43.336-10.43 63.867-2.211 6.57-7.672 11.531-14.422 13.094zM175.585 756.131c-3.75 3.758-8.836 5.672-14.148 5.672l-45.234 0.016-70.984 118.516 34.477 34.477 118.313-71v-45.234c0-5.297 2.102-10.375 5.844-14.125l251.313-251.883-28.289-28.281zM684.312 366.005l276.539-253.695c30.891-31.219 30.797-81.766-0.289-112.867-31.156-31.156-81.594-31.25-112.875-0.273l-254.156 276.070zM654.812 393.076l-88.398-88.383-27 29.328 86.016 86.023zM823.992 600.006c-17.492 0-34.695 2.805-51.117 8.336-7.195 2.414-15.148 0.555-20.523-4.813-100.266-100.266-316.313-316.305-395.867-395.867-5.375-5.375-7.242-13.328-4.813-20.531 16.625-49.367 8.672-102.023-21.828-144.484-30.414-42.336-77.742-66.625-129.836-66.625-5.852 0-11.672 0.32-17.438 0.938l63.523 63.031c3.781 3.75 5.914 8.859 5.914 14.195v56.578c0 5.305-2.109 10.391-5.859 14.141l-57.258 57.258c-3.75 3.75-8.836 5.859-14.141 5.859h-56.578c-5.336 0-10.445-2.133-14.203-5.914l-63.023-63.523c-0.625 5.766-0.938 11.586-0.938 17.438 0 52.102 24.281 99.422 66.625 129.836 42.453 30.5 95.117 38.461 144.492 21.828 7.195-2.43 15.148-0.563 20.523 4.813 1.102 1.094 395.586 395.586 395.867 395.867 5.375 5.375 7.234 13.32 4.813 20.523-16.633 49.367-8.695 102.008 21.781 144.438 30.438 42.375 77.773 66.672 129.875 66.672 6.031 0 12.023-0.336 17.961-0.992l-62.203-63.133c-3.688-3.742-5.75-8.781-5.75-14.031v-56.578c0-5.188 2.008-10.164 5.609-13.891l55.258-57.258c3.766-3.906 8.961-6.109 14.391-6.109h56.578c5.328 0 10.438 2.125 14.195 5.914l63.023 63.516c0.625-5.766 0.938-11.586 0.938-17.438 0-88.219-71.773-159.992-159.992-159.992zM622.992 587.287l-250.274-250.274c-7.805-7.805-7.805-20.469 0-28.281 7.813-7.813 20.477-7.813 28.289 0l250.274 250.274c7.813 7.805 7.813 20.469 0 28.281s-20.477 7.813-28.289 0zM875.726 55.997c7.813-7.789 20.477-7.789 28.289 0.047 7.797 7.82 7.773 20.484-0.047 28.281l-180.274 179.695c-7.82 7.797-20.492 7.773-28.281-0.047-7.805-7.828-7.781-20.484 0.039-28.281z" />
<glyph unicode="&#xe937;" glyph-name="file" horiz-adv-x="862" d="M54.001 918.098c27.908 27.962 60.477 41.889 97.759 41.889h325.79c18.642 0 33.056-8.291 40.642-22.055l309.642-309.588c13.764-7.586 22.055-22.055 22.055-40.642v-512.041c0-37.229-13.981-74.457-41.889-97.759s-60.53-41.889-97.759-41.889h-558.536c-37.229 0-74.457 13.981-97.704 41.889-27.962 27.962-41.889 60.53-41.889 97.813v744.679c0 37.229 13.927 74.457 41.889 97.704zM151.705 866.943c-0.326 0.009-0.709 0.014-1.094 0.014-12.455 0-23.652-5.387-31.387-13.958l-0.033-0.037c-8.609-7.769-13.996-18.966-13.996-31.421 0-0.403 0.006-0.805 0.017-1.206l-0.001 0.059v-744.733c0-13.981 4.606-23.302 13.927-32.568 7.769-8.609 18.966-13.996 31.421-13.996 0.403 0 0.805 0.006 1.206 0.017l-0.059-0.001h558.536c0.357-0.011 0.777-0.017 1.2-0.017 12.456 0 23.654 5.388 31.39 13.961l0.033 0.037c8.578 7.766 13.944 18.943 13.944 31.374 0 0.42-0.006 0.839-0.018 1.256l0.001-0.061v465.547h-279.187c-27.908 0-46.603 18.587-46.603 46.495v279.242zM524.099 634.197h167.556l-167.556 167.556z" />
<glyph unicode="&#xe938;" glyph-name="star_icon" d="M350.298 622.223c0 0-193.732-21.457-322.967-35.803-11.649-1.41-21.949-9.196-25.811-21.029s0-24.156 8.583-31.941c96.007-87.609 240.264-218.806 240.264-218.806-0.122 0-39.605-190.849-65.844-318.185-2.207-11.525 1.961-23.726 12.017-31.021 9.994-7.295 22.868-7.419 32.984-1.717 113.050 64.251 282.382 160.87 282.382 160.87s169.392-96.621 282.259-160.932c10.3-5.64 23.174-5.518 33.168 1.777 10.054 7.295 14.224 19.496 11.955 30.961-26.239 127.396-65.66 318.247-65.66 318.247s144.257 131.198 240.264 218.622c8.583 8.031 12.385 20.354 8.583 32.125s-14.1 19.558-25.749 20.905c-129.236 14.468-323.029 35.927-323.029 35.927s-80.312 177.669-133.834 296.115c-5.028 10.606-15.572 18.024-27.956 18.024s-22.99-7.479-27.772-18.024c-53.583-118.446-133.834-296.115-133.834-296.115z" />
<glyph unicode="&#xe939;" glyph-name="gallery" d="M873.357 959.991h-722.736c-83.012 0-150.591-67.528-150.591-150.591v-722.785c0-83.012 67.528-150.591 150.591-150.591h722.785c83.012 0 150.591 67.528 150.591 150.591v722.785c-0.050 83.063-67.579 150.591-150.641 150.591zM963.711 86.665c0-49.798-40.508-90.354-90.354-90.354h-722.736c-49.798 0-90.354 40.508-90.354 90.354v108.935l243.043 270.065 328.303-298.434 181.558 151.29 150.591-125.468v-106.388zM963.711 271.42l-150.591 125.468-179.86-149.842-334.197 303.879-238.797-265.319v523.796c0 49.798 40.508 90.354 90.354 90.354h722.785c49.798 0 90.354-40.508 90.354-90.354v-537.982zM722.817 508.269c83.012 0 150.591 67.528 150.591 150.591s-67.528 150.591-150.591 150.591c-83.012 0-150.591-67.528-150.591-150.591s67.528-150.591 150.591-150.591zM722.817 749.164c49.798 0 90.354-40.508 90.354-90.354s-40.508-90.354-90.354-90.354-90.354 40.508-90.354 90.354 40.508 90.354 90.354 90.354z" />
<glyph unicode="&#xe93a;" glyph-name="donation1" d="M256.009 554.757l-51.486 37.983c-13.36-18.147-25.697-37.023-36.959-56.542l55.422-31.999c10.058 17.455 21.081 34.333 33.023 50.558zM195.532 450.153l-58.494 25.951c-9.146-20.559-17.157-41.602-23.999-63.038l60.798-19.487c6.212 19.233 13.454 38.119 21.695 56.574zM696.793 699.104c32.603 8.22 66.832 7.402 99.004-2.368l17.183 61.662c-39.519 11.56-81.267 13.264-121.596 4.96l26.943 62.846c20.871 48.736-1.718 105.164-50.454 126.035-11.956 5.12-24.825 7.758-37.831 7.752h-253.879c-53.018-0.006-95.992-42.99-95.986-96.006 0.002-13 2.644-25.863 7.766-37.813l46.942-109.372c-31.841-20.227-61.010-44.384-86.813-71.901l46.398-44.062c26.295 28.279 56.838 52.288 90.525 71.165h236.215c129.563-70.941 233.879-255.543 233.879-415.985 0-211.576-191.417-255.991-351.987-255.991s-351.987 44.414-351.987 255.991c0.12 26.633 2.778 53.196 7.936 79.325l-62.846 12.096c-5.91-30.119-8.954-60.728-9.088-91.421 0-206.328 147.739-319.988 415.985-319.988s415.985 113.66 415.985 319.988c-5.138 173.25-86.487 335.396-222.296 443.088zM659.451 851.194l-49.438-115.196h-213.816l-49.438 115.196c-7.070 16.197 0.33 35.059 16.527 42.126 4.062 1.772 8.448 2.682 12.88 2.672h253.879c17.673 0.044 32.035-14.247 32.079-31.919 0.010-4.432-0.9-8.818-2.672-12.88zM936.88 698.592c-18.841 12.632-38.465 24.057-58.75 34.207l-28.479-57.31c17.833-8.984 35.083-19.083 51.646-30.239l35.583 53.342zM684.794 265.392c56.424 56.418 56.43 147.893 0.014 204.319-48.504 48.51-124.433 56.224-181.703 18.457-66.612 43.926-156.22 25.537-200.147-41.072-37.767-57.268-30.053-133.199 18.457-181.703l181.689-181.689 181.689 181.689zM366.661 424.458c31.459 31.363 82.361 31.363 113.82 0l22.623-22.623 22.623 22.623c31.431 31.431 82.389 31.431 113.82 0s31.431-82.389 0-113.82l-136.443-136.443-136.443 136.443c-31.363 31.459-31.363 82.361 0 113.82z" />
<glyph unicode="&#xe93b;" glyph-name="exclamation1" d="M511.991 959.99c-282.996 0-511.981-229.006-511.981-511.981 0-282.996 229.006-511.981 511.981-511.981 282.996 0 511.981 229.006 511.981 511.981 0 282.996-229.006 511.981-511.981 511.981zM511.991 16.025c-238.777 0-431.984 193.223-431.984 431.984 0 238.777 193.223 431.984 431.984 431.984 238.777 0 431.984-193.223 431.984-431.984 0-238.777-193.223-431.984-431.984-431.984zM511.991 702.246c-22.091 0-39.999-17.907-39.999-39.999v-257.577c0-22.091 17.907-39.999 39.999-39.999s39.999 17.907 39.999 39.999v257.577c0 22.091-17.907 39.999-39.999 39.999zM565.989 261.696c0-29.822-24.176-53.998-53.998-53.998s-53.998 24.176-53.998 53.998c0 29.822 24.176 53.998 53.998 53.998s53.998-24.176 53.998-53.998z" />
<glyph unicode="&#xe93c;" glyph-name="hastag" d="M122.014 328.013c-33.14 0-59.998-26.858-59.998-59.998 0-33.132 26.858-59.998 59.998-59.998h117.996l-27.999-211.992c0-33.132 26.858-59.998 59.998-59.998s59.998 26.866 59.998 59.998l27.999 211.992h239.991l-27.999-211.992c0-33.132 26.858-59.998 59.998-59.998s59.998 26.866 59.998 59.998l27.999 211.992h121.996c33.14 0 59.998 26.866 59.998 59.998 0 33.14-26.858 59.998-59.998 59.998h-105.996l31.999 239.991h133.995c33.14 0 59.998 26.866 59.998 59.998 0 33.14-26.858 59.998-59.998 59.998h-117.996l27.999 211.992c0 33.14-26.858 59.998-59.998 59.998s-59.998-26.858-59.998-59.998l-27.999-211.992h-239.991l27.999 211.992c0 33.14-26.858 59.998-59.998 59.998s-59.998-26.858-59.998-59.998l-27.999-211.992h-121.996c-33.14 0-59.998-26.858-59.998-59.998 0-33.132 26.858-59.998 59.998-59.998h105.996l-31.999-239.991zM408.004 568.005h239.991l-31.999-239.991h-239.991z" />
</font>
</defs>
</svg>
